<?xml version="1.0" encoding="UTF-8" standalone="no"?>
<svg
   width="60"
   height="60"
   version="1.1"
   id="svg7"
   sodipodi:docname="hexa-grid.svg"
   inkscape:version="1.1.2 (0a00cf5339, 2022-02-04)"
   xmlns:inkscape="http://www.inkscape.org/namespaces/inkscape"
   xmlns:sodipodi="http://sodipodi.sourceforge.net/DTD/sodipodi-0.dtd"
   xmlns="http://www.w3.org/2000/svg"
   xmlns:svg="http://www.w3.org/2000/svg">
  <sodipodi:namedview
     id="namedview9"
     pagecolor="#ffffff"
     bordercolor="#666666"
     borderopacity="1.0"
     inkscape:pageshadow="2"
     inkscape:pageopacity="0.0"
     inkscape:pagecheckerboard="0"
     showgrid="false"
     inkscape:zoom="4.0161456"
     inkscape:cx="-42.95163"
     inkscape:cy="28.385425"
     inkscape:window-width="1384"
     inkscape:window-height="870"
     inkscape:window-x="915"
     inkscape:window-y="223"
     inkscape:window-maximized="0"
     inkscape:current-layer="svg7" />
  <defs
     id="defs3">
    <style
       id="current-color-scheme"
       type="text/css">
   .ColorScheme-Text { color:#565656; } .ColorScheme-Highlight { color:#4285f4; }
  </style>
  </defs>
  <path
     style="fill:#cccccc;stroke-width:3.57143;fill-opacity:1"
     class="ColorScheme-Text"
     d="m 44.285714,40.714286 h 7.142857 c 0,0 3.571429,0 3.571429,3.571428 v 7.142857 C 55,51.428571 55,55 51.428571,55 h -7.142857 c 0,0 -3.571428,0 -3.571428,-3.571429 v -7.142857 c 0,0 0,-3.571428 3.571428,-3.571428 z m -17.857143,0 h 7.142858 c 0,0 3.571428,0 3.571428,3.571428 v 7.142857 c 0,0 0,3.571429 -3.571428,3.571429 h -7.142858 c 0,0 -3.571428,0 -3.571428,-3.571429 v -7.142857 c 0,0 0,-3.571428 3.571428,-3.571428 z m -17.8571424,0 h 7.1428574 c 0,0 3.571428,0 3.571428,3.571428 v 7.142857 c 0,0 0,3.571429 -3.571428,3.571429 H 8.5714286 C 8.5714286,55 5,55 5,51.428571 v -7.142857 c 0,0 0,-3.571428 3.5714286,-3.571428 z M 44.285714,22.857143 h 7.142857 c 0,0 3.571429,0 3.571429,3.571428 v 7.142858 c 0,0 0,3.571428 -3.571429,3.571428 h -7.142857 c 0,0 -3.571428,0 -3.571428,-3.571428 v -7.142858 c 0,0 0,-3.571428 3.571428,-3.571428 z m -17.857143,0 h 7.142858 c 0,0 3.571428,0 3.571428,3.571428 v 7.142858 c 0,0 0,3.571428 -3.571428,3.571428 h -7.142858 c 0,0 -3.571428,0 -3.571428,-3.571428 v -7.142858 c 0,0 0,-3.571428 3.571428,-3.571428 z m -17.8571424,0 h 7.1428574 c 0,0 3.571428,0 3.571428,3.571428 v 7.142858 c 0,0 0,3.571428 -3.571428,3.571428 H 8.5714286 c 0,0 -3.5714286,0 -3.5714286,-3.571428 v -7.142858 c 0,0 0,-3.571428 3.5714286,-3.571428 z M 44.285714,5 h 7.142857 C 51.428571,5 55,5 55,8.5714286 v 7.1428574 c 0,0 0,3.571428 -3.571429,3.571428 h -7.142857 c 0,0 -3.571428,0 -3.571428,-3.571428 V 8.5714286 c 0,0 0,-3.5714286 3.571428,-3.5714286 z M 26.428571,5 h 7.142858 c 0,0 3.571428,0 3.571428,3.5714286 v 7.1428574 c 0,0 0,3.571428 -3.571428,3.571428 h -7.142858 c 0,0 -3.571428,0 -3.571428,-3.571428 V 8.5714286 c 0,0 0,-3.5714286 3.571428,-3.5714286 z M 8.5714286,5 h 7.1428574 c 0,0 3.571428,0 3.571428,3.5714286 v 7.1428574 c 0,0 0,3.571428 -3.571428,3.571428 H 8.5714286 c 0,0 -3.5714286,0 -3.5714286,-3.571428 V 8.5714286 C 5,8.5714286 5,5 8.5714286,5 Z"
     id="path5" />
</svg>
